<svg width="16" height="16" viewBox="0 0 24 24" fill="none" xmlns="http://www.w3.org/2000/svg">
  <path d="M12 2C6.48 2 2 6.58 2 12.24C2 16.76 4.87 20.59 8.84 21.94C9.34 22.04 9.52 21.72 9.52 21.44C9.52 21.19 9.51 20.37 9.51 19.5C6.73 20.12 6.14 18.31 6.14 18.31C5.68 17.09 5.03 16.77 5.03 16.77C4.12 16.13 5.1 16.14 5.1 16.14C6.11 16.21 6.64 17.21 6.64 17.21C7.54 18.79 9 18.33 9.58 18.05C9.67 17.38 9.93 16.92 10.21 16.66C7.99 16.4 5.66 15.5 5.66 11.49C5.66 10.35 6.05 9.42 6.7 8.7C6.6 8.44 6.26 7.39 6.8 5.98C6.8 5.98 7.64 5.7 9.5 7.01C10.3 6.78 11.16 6.66 12 6.66C12.84 6.66 13.7 6.78 14.5 7.01C16.36 5.7 17.2 5.98 17.2 5.98C17.74 7.39 17.4 8.44 17.3 8.7C17.95 9.42 18.34 10.35 18.34 11.49C18.34 15.51 16 16.39 13.78 16.65C14.13 16.97 14.44 17.61 14.44 18.59C14.44 19.99 14.43 21.12 14.43 21.44C14.43 21.72 14.61 22.05 15.12 21.94C19.09 20.59 21.96 16.76 21.96 12.24C21.96 6.58 17.48 2 12 2Z" fill="currentColor"/>
</svg>
