<svg width="1440" height="900" viewBox="0 0 1440 900" fill="none" xmlns="http://www.w3.org/2000/svg">
  <rect width="1440" height="900" fill="#0f1217"/>

  <rect x="32" y="24" width="1376" height="62" rx="10" fill="#151b23" stroke="#2a3340"/>
  <text x="56" y="62" fill="#f4efe8" font-family="Segoe UI, sans-serif" font-size="16" font-weight="700">← 목록으로</text>
  <text x="652" y="62" fill="#f4efe8" font-family="Segoe UI, sans-serif" font-size="18" font-weight="700">게시글 작성</text>
  <text x="1224" y="62" fill="#9aa3ad" font-family="Segoe UI, sans-serif" font-size="13">임시저장됨 2분 전</text>

  <rect x="32" y="102" width="1376" height="730" rx="16" fill="#151b23" stroke="#2a3340"/>

  <text x="64" y="144" fill="#9aa3ad" font-family="Segoe UI, sans-serif" font-size="13">카테고리</text>
  <rect x="64" y="156" width="320" height="44" rx="10" fill="#1b2230" stroke="#2a3340"/>
  <text x="84" y="184" fill="#f4efe8" font-family="Segoe UI, sans-serif" font-size="14">자유수다 ▼</text>

  <text x="64" y="236" fill="#9aa3ad" font-family="Segoe UI, sans-serif" font-size="13">제목</text>
  <rect x="64" y="248" width="1312" height="54" rx="10" fill="#1b2230" stroke="#2a3340"/>
  <text x="84" y="280" fill="#9aa3ad" font-family="Segoe UI, sans-serif" font-size="14">제목을 입력하세요</text>

  <text x="64" y="338" fill="#9aa3ad" font-family="Segoe UI, sans-serif" font-size="13">본문</text>
  <rect x="64" y="350" width="1312" height="360" rx="12" fill="#1b2230" stroke="#2a3340"/>
  <rect x="84" y="370" width="1272" height="36" rx="8" fill="#151b23"/>
  <text x="96" y="393" fill="#9aa3ad" font-family="Segoe UI, sans-serif" font-size="12">툴바 · B · I · H2 · Link · Image</text>
  <rect x="84" y="418" width="1272" height="272" rx="8" fill="#0f1217" stroke="#2a3340" stroke-dasharray="6 6"/>
  <text x="104" y="454" fill="#9aa3ad" font-family="Segoe UI, sans-serif" font-size="14">본문 작성 영역</text>

  <rect x="64" y="726" width="1312" height="78" rx="12" fill="#1b2230"/>
  <text x="84" y="754" fill="#9aa3ad" font-family="Segoe UI, sans-serif" font-size="13">도움말: 핵심 내용을 먼저 쓰고, 이미지와 링크는 필요한 만큼만 추가하세요.</text>
  <text x="84" y="776" fill="#6da7ff" font-family="Segoe UI, sans-serif" font-size="13">상태: 저장 가능 · 오류 없음</text>

  <rect x="32" y="848" width="1376" height="34" rx="8" fill="#151b23" stroke="#2a3340"/>
  <rect x="1040" y="853" width="96" height="24" rx="6" fill="#1b2230" stroke="#2a3340"/>
  <text x="1070" y="869" fill="#f4efe8" font-family="Segoe UI, sans-serif" font-size="12">취소</text>
  <rect x="1148" y="853" width="96" height="24" rx="6" fill="#1b2230" stroke="#2a3340"/>
  <text x="1170" y="869" fill="#f4efe8" font-family="Segoe UI, sans-serif" font-size="12">임시저장</text>
  <rect x="1256" y="853" width="120" height="24" rx="6" fill="#c29a73"/>
  <text x="1300" y="869" fill="#18110b" font-family="Segoe UI, sans-serif" font-size="12" font-weight="700">등록하기</text>
</svg>
